HIERARCHY
ROOT Hips
{
  OFFSET -237.676 89.6478 1193.95
  CHANNELS 6 Xposition Yposition Zposition Zrotation Xrotation Yrotation
  JOINT Spine
  {
    OFFSET 3.69095e-05 8 3.09835e-05
    CHANNELS 6 Xposition Yposition Zposition Zrotation Xrotation Yrotation
    JOINT Spine1
    {
      OFFSET 0 7.99999 0.000107254
      CHANNELS 6 Xposition Yposition Zposition Zrotation Xrotation Yrotation
      JOINT Spine2
      {
        OFFSET 5.6646e-05 8.00001 0
        CHANNELS 6 Xposition Yposition Zposition Zrotation Xrotation Yrotation
        JOINT Spine3
        {
          OFFSET 0 8 0
          CHANNELS 6 Xposition Yposition Zposition Zrotation Xrotation Yrotation
          JOINT Neck
          {
            OFFSET -1.42514e-05 17 -1.40328e-05
            CHANNELS 6 Xposition Yposition Zposition Zrotation Xrotation Yrotation
            JOINT Head
            {
              OFFSET 7.15185e-05 10.8 7.64044e-05
              CHANNELS 6 Xposition Yposition Zposition Zrotation Xrotation Yrotation
              End Site
              {
                OFFSET 0 20.25 0
              }
            }
          }
          JOINT LeftShoulder
          {
            OFFSET 4.99998 17 0
            CHANNELS 6 Xposition Yposition Zposition Zrotation Xrotation Yrotation
            JOINT LeftShoulder2
            {
              OFFSET 6.45 0 0
              CHANNELS 6 Xposition Yposition Zposition Zrotation Xrotation Yrotation
              JOINT LeftArm
              {
                OFFSET 6.45 0 0
                CHANNELS 6 Xposition Yposition Zposition Zrotation Xrotation Yrotation
                JOINT LeftForeArm
                {
                  OFFSET 0 -32.4 -1.99998
                  CHANNELS 6 Xposition Yposition Zposition Zrotation Xrotation Yrotation
                  JOINT LeftHand
                  {
                    OFFSET 1.38715e-05 -25.65 1.99999
                    CHANNELS 6 Xposition Yposition Zposition Zrotation Xrotation Yrotation
                    JOINT LeftHandThumb1
                    {
                      OFFSET -0.50002 -1.49999 2.64994
                      CHANNELS 6 Xposition Yposition Zposition Zrotation Xrotation Yrotation
                      JOINT LeftHandThumb2
                      {
                        OFFSET -2.90681e-05 -3.80007 3.69998
                        CHANNELS 6 Xposition Yposition Zposition Zrotation Xrotation Yrotation
                        JOINT LeftHandThumb3
                        {
                          OFFSET 7.5306e-05 -3.00004 2.69995
                          CHANNELS 6 Xposition Yposition Zposition Zrotation Xrotation Yrotation
                          End Site
                          {
                            OFFSET -7.68702e-05 -2.30006 1.79994
                          }
                        }
                      }
                    }
                    JOINT LeftHandIndex
                    {
                      OFFSET -4.67658e-05 -1.90007 1.59998
                      CHANNELS 6 Xposition Yposition Zposition Zrotation Xrotation Yrotation
                      JOINT LeftHandIndex1
                      {
                        OFFSET -3.2856e-05 -8.30003 1.89992
                        CHANNELS 6 Xposition Yposition Zposition Zrotation Xrotation Yrotation
                        JOINT LeftHandIndex2
                        {
                          OFFSET 0.000128651 -4.49997 -9.13512e-05
                          CHANNELS 6 Xposition Yposition Zposition Zrotation Xrotation Yrotation
                          JOINT LeftHandIndex3
                          {
                            OFFSET 6.98497e-05 -3.4 -3.83811e-05
                            CHANNELS 6 Xposition Yposition Zposition Zrotation Xrotation Yrotation
                            End Site
                            {
                              OFFSET 3.87947e-05 -2.60007 3.38621e-05
                            }
                          }
                        }
                      }
                    }
                    JOINT LeftHandMiddle
                    {
                      OFFSET -0.249959 -2.20002 0.39997
                      CHANNELS 6 Xposition Yposition Zposition Zrotation Xrotation Yrotation
                      JOINT LeftHandMiddle1
                      {
                        OFFSET 0 -8.29992 0.999997
                        CHANNELS 6 Xposition Yposition Zposition Zrotation Xrotation Yrotation
                        JOINT LeftHandMiddle2
                        {
                          OFFSET 7.11891e-05 -4.65003 -0.000128721
                          CHANNELS 6 Xposition Yposition Zposition Zrotation Xrotation Yrotation
                          JOINT LeftHandMiddle3
                          {
                            OFFSET 4.60953e-05 -3.29997 -3.74239e-05
                            CHANNELS 6 Xposition Yposition Zposition Zrotation Xrotation Yrotation
                            End Site
                            {
                              OFFSET 5.12726e-05 -2.70002 9.97679e-05
                            }
                          }
                        }
                      }
                    }
                    JOINT LeftHandRing
                    {
                      OFFSET -0.500016 -2.14993 -0.799913
                      CHANNELS 6 Xposition Yposition Zposition Zrotation Xrotation Yrotation
                      JOINT LeftHandRing1
                      {
                        OFFSET 0 -7.75004 -0.20006
                        CHANNELS 6 Xposition Yposition Zposition Zrotation Xrotation Yrotation
                        JOINT LeftHandRing2
                        {
                          OFFSET 5.8515e-05 -3.80004 -4.40717e-05
                          CHANNELS 6 Xposition Yposition Zposition Zrotation Xrotation Yrotation
                          JOINT LeftHandRing3
                          {
                            OFFSET -4.56371e-05 -3.40002 0
                            CHANNELS 6 Xposition Yposition Zposition Zrotation Xrotation Yrotation
                            End Site
                            {
                              OFFSET -4.8471e-05 -2.59997 -9.56528e-05
                            }
                          }
                        }
                      }
                    }
                    JOINT LeftHandPinky
                    {
                      OFFSET -0.750091 -1.75003 -1.84994
                      CHANNELS 6 Xposition Yposition Zposition Zrotation Xrotation Yrotation
                      JOINT LeftHandPinky1
                      {
                        OFFSET 2.19466e-05 -7.15004 -0.999946
                        CHANNELS 6 Xposition Yposition Zposition Zrotation Xrotation Yrotation
                        JOINT LeftHandPinky2
                        {
                          OFFSET -5.76389e-05 -2.99999 1.99618e-05
                          CHANNELS 6 Xposition Yposition Zposition Zrotation Xrotation Yrotation
                          JOINT LeftHandPinky3
                          {
                            OFFSET 8.23451e-05 -2.34997 1.63301e-05
                            CHANNELS 6 Xposition Yposition Zposition Zrotation Xrotation Yrotation
                            End Site
                            {
                              OFFSET 0 -2.09996 -3.82095e-05
                            }
                          }
                        }
                      }
                    }
                  }
                }
              }
            }
          }
          JOINT RightShoulder
          {
            OFFSET -5.00002 17 0
            CHANNELS 6 Xposition Yposition Zposition Zrotation Xrotation Yrotation
            JOINT RightShoulder2
            {
              OFFSET -6.45 0 0
              CHANNELS 6 Xposition Yposition Zposition Zrotation Xrotation Yrotation
              JOINT RightArm
              {
                OFFSET -6.44998 0 1.43151e-05
                CHANNELS 6 Xposition Yposition Zposition Zrotation Xrotation Yrotation
                JOINT RightForeArm
                {
                  OFFSET -2.87427e-05 -32.4 -1.99997
                  CHANNELS 6 Xposition Yposition Zposition Zrotation Xrotation Yrotation
                  JOINT RightHand
                  {
                    OFFSET 9.43845e-05 -25.65 1.99999
                    CHANNELS 6 Xposition Yposition Zposition Zrotation Xrotation Yrotation
                    JOINT RightHandThumb1
                    {
                      OFFSET 0.500055 -1.5001 2.6501
                      CHANNELS 6 Xposition Yposition Zposition Zrotation Xrotation Yrotation
                      JOINT RightHandThumb2
                      {
                        OFFSET 4.05843e-05 -3.8 3.70002
                        CHANNELS 6 Xposition Yposition Zposition Zrotation Xrotation Yrotation
                        JOINT RightHandThumb3
                        {
                          OFFSET 2.64189e-05 -2.99992 2.70004
                          CHANNELS 6 Xposition Yposition Zposition Zrotation Xrotation Yrotation
                          End Site
                          {
                            OFFSET 2.76662e-05 -2.3 1.79998
                          }
                        }
                      }
                    }
                    JOINT RightHandIndex
                    {
                      OFFSET 5.87028e-05 -1.90008 1.60011
                      CHANNELS 6 Xposition Yposition Zposition Zrotation Xrotation Yrotation
                      JOINT RightHandIndex1
                      {
                        OFFSET 0.000104934 -8.29999 1.89994
                        CHANNELS 6 Xposition Yposition Zposition Zrotation Xrotation Yrotation
                        JOINT RightHandIndex2
                        {
                          OFFSET -6.11286e-05 -4.5 4.70578e-05
                          CHANNELS 6 Xposition Yposition Zposition Zrotation Xrotation Yrotation
                          JOINT RightHandIndex3
                          {
                            OFFSET 4.46665e-05 -3.39992 -6.05141e-05
                            CHANNELS 6 Xposition Yposition Zposition Zrotation Xrotation Yrotation
                            End Site
                            {
                              OFFSET 0.000120501 -2.60004 -0.000114663
                            }
                          }
                        }
                      }
                    }
                    JOINT RightHandMiddle
                    {
                      OFFSET 0.250032 -2.2 0.400022
                      CHANNELS 6 Xposition Yposition Zposition Zrotation Xrotation Yrotation
                      JOINT RightHandMiddle1
                      {
                        OFFSET 7.69816e-05 -8.29998 0.999918
                        CHANNELS 6 Xposition Yposition Zposition Zrotation Xrotation Yrotation
                        JOINT RightHandMiddle2
                        {
                          OFFSET -8.99545e-05 -4.64991 5.78574e-05
                          CHANNELS 6 Xposition Yposition Zposition Zrotation Xrotation Yrotation
                          JOINT RightHandMiddle3
                          {
                            OFFSET 0 -3.30004 -0.000100476
                            CHANNELS 6 Xposition Yposition Zposition Zrotation Xrotation Yrotation
                            End Site
                            {
                              OFFSET 8.85186e-05 -2.7 0.000173891
                            }
                          }
                        }
                      }
                    }
                    JOINT RightHandRing
                    {
                      OFFSET 0.499958 -2.14998 -0.799856
                      CHANNELS 6 Xposition Yposition Zposition Zrotation Xrotation Yrotation
                      JOINT RightHandRing1
                      {
                        OFFSET 1.48565e-05 -7.74993 -0.200023
                        CHANNELS 6 Xposition Yposition Zposition Zrotation Xrotation Yrotation
                        JOINT RightHandRing2
                        {
                          OFFSET 4.57344e-05 -3.79999 2.42644e-05
                          CHANNELS 6 Xposition Yposition Zposition Zrotation Xrotation Yrotation
                          JOINT RightHandRing3
                          {
                            OFFSET 2.84828e-05 -3.40007 8.43559e-05
                            CHANNELS 6 Xposition Yposition Zposition Zrotation Xrotation Yrotation
                            End Site
                            {
                              OFFSET 0 -2.60002 -5.27375e-05
                            }
                          }
                        }
                      }
                    }
                    JOINT RightHandPinky
                    {
                      OFFSET 0.750003 -1.74995 -1.85005
                      CHANNELS 6 Xposition Yposition Zposition Zrotation Xrotation Yrotation
                      JOINT RightHandPinky1
                      {
                        OFFSET 0 -7.15 -0.999947
                        CHANNELS 6 Xposition Yposition Zposition Zrotation Xrotation Yrotation
                        JOINT RightHandPinky2
                        {
                          OFFSET 1.37944e-05 -2.9999 -2.22668e-05
                          CHANNELS 6 Xposition Yposition Zposition Zrotation Xrotation Yrotation
                          JOINT RightHandPinky3
                          {
                            OFFSET -0.000112424 -2.35004 5.58338e-05
                            CHANNELS 6 Xposition Yposition Zposition Zrotation Xrotation Yrotation
                            End Site
                            {
                              OFFSET 0 -2.0999 -3.51428e-05
                            }
                          }
                        }
                      }
                    }
                  }
                }
              }
            }
          }
        }
      }
    }
  }
  JOINT LeftUpLeg
  {
    OFFSET 7.99998 0 0
    CHANNELS 6 Xposition Yposition Zposition Zrotation Xrotation Yrotation
    JOINT LeftLeg
    {
      OFFSET -1.26212e-05 -45 -1.00002
      CHANNELS 6 Xposition Yposition Zposition Zrotation Xrotation Yrotation
      JOINT LeftFoot
      {
        OFFSET 5.00764e-05 -41 -1.99998
        CHANNELS 6 Xposition Yposition Zposition Zrotation Xrotation Yrotation
        JOINT LeftToeBase
        {
          OFFSET -5.44951e-05 -7.5 12.4999
          CHANNELS 6 Xposition Yposition Zposition Zrotation Xrotation Yrotation
          JOINT LeftFootToe
          {
            OFFSET 0 0 4
            CHANNELS 6 Xposition Yposition Zposition Zrotation Xrotation Yrotation
            End Site
            {
              OFFSET 0 0 0
            }
          }
        }
      }
    }
  }
  JOINT RightUpLeg
  {
    OFFSET -7.99998 0 0
    CHANNELS 6 Xposition Yposition Zposition Zrotation Xrotation Yrotation
    JOINT RightLeg
    {
      OFFSET 3.58672e-05 -45.0001 -0.999869
      CHANNELS 6 Xposition Yposition Zposition Zrotation Xrotation Yrotation
      JOINT RightFoot
      {
        OFFSET 0.000125773 -41 -1.99992
        CHANNELS 6 Xposition Yposition Zposition Zrotation Xrotation Yrotation
        JOINT RightToeBase
        {
          OFFSET -0.000119424 -7.5 12.5
          CHANNELS 6 Xposition Yposition Zposition Zrotation Xrotation Yrotation
          JOINT RightFootToe
          {
            OFFSET 0 0 4
            CHANNELS 6 Xposition Yposition Zposition Zrotation Xrotation Yrotation
            End Site
            {
              OFFSET 0 0 0
            }
          }
        }
      }
    }
  }
}
MOTION
Frames:	3
Frame Time:	0.0111111
-232.931 90.426 1195.12 -16.6733 -14.154 128.928 -1.13687e-13 8 1.13687e-13 1.64087 26.9923 11.3407 1.13687e-13 8 0 -2.64764 11.0178 2.0997 -1.13687e-13 8 -1.13687e-13 -1.27006 5.53471 0.981593 0 8 0 -1.26302 5.50694 0.978891 -1.13687e-13 17 1.13687e-13 -1.7204 -3.97179 3.14899 1.13687e-13 10.8 -1.13687e-13 -3.69777 -9.42475 7.2103 5 17 1.13687e-13 -18.6085 -6.60041 10.7355 6.45 -1.13687e-13 1.13687e-13 -2.18167 -1.30134 2.4582 6.45 1.13687e-13 0 40.4789 0.273904 2.35585 0 -32.4 -2 34.3992 -24.3871 -1.79031 1.13687e-13 -25.65 2 22.9514 -67.4607 30.9891 -0.5 -1.5 2.65 0.308978 40.419 -85.1341 1.13687e-13 -3.8 3.7 -0.0482364 42.5311 -0.206561 -1.13687e-13 -3 2.7 0.0211298 9.06298 -0.0773139 0 -1.9 1.6 1.84775e-06 -3.35263e-06 -2.94469e-06 0 -8.3 1.9 -50.0515 -15.6543 -6.45586 2.27374e-13 -4.5 0 -0.0836146 -0.0565544 0.00207372 2.27374e-13 -3.4 -1.13687e-13 1.35526e-05 -0.0118738 0.0231945 -0.25 -2.2 0.4 1.84775e-06 -3.35263e-06 -2.94469e-06 0 -8.3 1 -32.0037 -19.318 -4.4887 -2.27374e-13 -4.65 2.84217e-14 -0.612892 0.00795921 -0.00554368 -2.27374e-13 -3.3 0 8.81637 0.0269287 -0.0300843 -0.5 -2.15 -0.8 1.84775e-06 -3.35263e-06 -2.94469e-06 -1.13687e-13 -7.75 -0.2 -35.5499 2.8234 2.14997 0 -3.8 5.68434e-14 -1.10261 0.0424292 0.0414047 2.27374e-13 -3.4 5.68434e-14 -90.0041 0.0163485 -1.72549 -0.75 -1.75 -1.85 1.84775e-06 -3.35263e-06 -2.94469e-06 0 -7.15 -1 -32.654 6.21686 3.23423 0 -3 1.13687e-13 -0.116841 -0.10036 0.102538 0 -2.35 0 -5.01653e-05 -0.115101 0.0771395 -5 17 -1.13687e-13 -3.02618 -1.90116 1.66724 -6.45 -1.13687e-13 -1.13687e-13 -1.37694 -0.141837 -2.5519 -6.45 -1.13687e-13 0 -91.4394 -33.6282 -5.86525 1.13687e-13 -32.4 -2 22.0041 -76.3387 5.93522 0 -25.65 2 33.2445 -2.70955 21.0623 0.5 -1.5 2.65 -18.0652 50.5628 -135.563 0 -3.8 3.7 0.0874511 -0.362818 0.00938489 2.27374e-13 -3 2.7 -0.00636351 34.5963 0.0133124 -2.27374e-13 -1.9 1.6 -2.49538e-06 -1.22826e-06 1.99572e-06 0 -8.3 1.9 0.84491 -7.51948 0.0195139 0 -4.5 -2.27374e-13 -0.0382034 -0.100777 0.00388852 0 -3.4 -2.27374e-13 -0.164289 -0.00409672 0.00857516 0.25 -2.2 0.4 -2.49538e-06 -1.22826e-06 1.99572e-06 -2.27374e-13 -8.3 1 0.533687 -5.86632 -0.00490799 0 -4.65 -1.42109e-13 1.20569 4.62801 0.462577 2.27374e-13 -3.3 2.84217e-14 14.2364 -0.0861984 -0.152541 0.5 -2.15 -0.8 -2.49538e-06 -1.22826e-06 1.99572e-06 2.27374e-13 -7.75 -0.2 0.141359 -3.61977 -0.0141262 0 -3.8 -5.68434e-14 3.53617 9.89519 2.11742 -2.27374e-13 -3.4 -1.7053e-13 22.218 -0.112835 -0.0966572 0.75 -1.75 -1.85 -2.49538e-06 -1.22826e-06 1.99572e-06 0 -7.15 -1 0.713117 -3.59356 -0.00304326 -2.27374e-13 -3 1.42109e-13 0.559648 1.24611 0.152676 0 -2.35 0 2.69799 0.052544 0.0565233 8 0 -1.13687e-13 -1.68527 -31.6877 -46.3852 2.27374e-13 -45 -1 13.4262 8.77107 -2.691 2.27374e-13 -41 -2 -18.9387 -1.30534 22.3002 0 -7.5 12.5 6.60294e-08 -6.76454e-08 -6.94951e-12 -2.27374e-13 0 4 12.1774 3.0904 92.4751 -8 0 2.27374e-13 -13.5086 -15.7437 1.93168 0 -45 -1 26.3526 -7.01936 -5.00231 1.13687e-13 -41 -2 -13.6967 -1.19709 12.6011 0 -7.5 12.5 0.00197838 0.212413 8.20484e-05 0 0 4 -5.27778 11 31.3132 
-232.964 90.3452 1195.13 -16.6324 -14.1816 129.003 -1.13687e-13 8 1.13687e-13 1.64423 26.9986 11.3605 1.13687e-13 8 1.13687e-13 -2.61957 11.0107 2.08894 0 8 -1.13687e-13 -1.25656 5.53098 0.979218 1.13687e-13 8 0 -1.24999 5.50339 0.973748 0 17 1.13687e-13 -1.68824 -3.99382 3.09484 1.13687e-13 10.8 -1.13687e-13 -3.62663 -9.47119 7.08593 5 17 0 -18.5815 -6.58287 10.6953 6.45 -1.13687e-13 1.13687e-13 -2.17662 -1.29665 2.45851 6.45 0 -1.13687e-13 40.5676 0.066735 2.39618 0 -32.4 -2 34.4627 -24.2143 -1.86891 2.27374e-13 -25.65 2 21.4353 -67.1995 30.1177 -0.5 -1.5 2.65 0.322088 41.3141 -84.9152 1.13687e-13 -3.8 3.7 -0.0529095 43.4758 -0.162454 0 -3 2.7 0.0198109 10.4354 -0.00149272 -1.13687e-13 -1.9 1.6 1.84775e-06 -3.35263e-06 -2.94469e-06 0 -8.3 1.9 -49.9712 -15.871 -6.53566 0 -4.5 0 -0.0834362 -0.0559455 0.00199871 -2.27374e-13 -3.4 -1.13687e-13 1.33116e-05 -0.0115358 0.0225806 -0.25 -2.2 0.4 1.84775e-06 -3.35263e-06 -2.94469e-06 0 -8.3 1 -32.5636 -19.6836 -4.64876 -4.54747e-13 -4.65 0 -0.612957 0.00796579 -0.00519484 -2.27374e-13 -3.3 0 8.45641 0.0125839 -0.0393274 -0.5 -2.15 -0.8 1.84775e-06 -3.35263e-06 -2.94469e-06 -2.27374e-13 -7.75 -0.2 -34.1822 2.56978 1.93293 -2.27374e-13 -3.8 -1.13687e-13 -1.10261 0.0413819 0.0403751 0 -3.4 1.13687e-13 -90.0041 0.0163484 -1.72716 -0.75 -1.75 -1.85 1.84775e-06 -3.35263e-06 -2.94469e-06 0 -7.15 -1 -31.8009 6.18735 3.11442 -2.27374e-13 -3 1.13687e-13 -0.116834 -0.100129 0.101819 2.27374e-13 -2.35 0 -5.01501e-05 -0.113511 0.0766254 -5 17 0 -3.07417 -1.88717 1.64229 -6.45 0 -1.13687e-13 -1.37655 -0.142134 -2.55143 -6.45 0 0 -91.1297 -33.7466 -5.64775 0 -32.4 -2 22.3685 -76.2734 6.15728 -1.13687e-13 -25.65 2 33.2157 -2.37383 20.9483 0.5 -1.5 2.65 -18.9218 50.4702 -135.067 0 -3.8 3.7 0.0881447 -0.362484 0.00928769 0 -3 2.7 -0.00690318 34.4963 0.0138292 2.27374e-13 -1.9 1.6 -2.49538e-06 -1.22826e-06 1.99572e-06 -2.27374e-13 -8.3 1.9 1.0141 -8.23074 0.0406797 2.27374e-13 -4.5 -2.55795e-13 0.000938949 -0.012972 0.00222899 -2.27374e-13 -3.4 -2.55795e-13 2.08391e-05 -0.0112535 0.0020898 0.25 -2.2 0.4 -2.49538e-06 -1.22826e-06 1.99572e-06 -2.27374e-13 -8.3 1 0.772821 -6.72472 0.0161069 0 -4.65 -1.13687e-13 0.953216 3.64738 0.398656 -2.27374e-13 -3.3 0 11.7972 0.000999358 -0.0239927 0.5 -2.15 -0.8 -2.49538e-06 -1.22826e-06 1.99572e-06 0 -7.75 -0.2 0.352116 -4.13652 -0.009769 0 -3.8 0 3.08192 8.33097 1.5437 0 -3.4 -1.7053e-13 18.5849 -0.000593823 -0.0173731 0.75 -1.75 -1.85 -2.49538e-06 -1.22826e-06 1.99572e-06 0 -7.15 -1 0.127348 -3.19925 -0.0139547 0 -3 1.13687e-13 0.141709 0.211933 0.015335 0 -2.35 0 0.564684 0.00765596 0.0126284 8 5.68434e-14 -1.13687e-13 -2.04093 -31.6436 -46.5674 0 -45 -1 13.9992 9.10634 -2.85268 0 -41 -2 -19.2802 -1.44264 22.2222 0 -7.5 12.5 6.60294e-08 -6.76454e-08 -6.94315e-12 -4.54747e-13 0 4 12.2256 3.06412 92.4824 -8 0 1.13687e-13 -13.7299 -15.8416 1.89243 0 -45 -1 26.8246 -6.84308 -5.0986 0 -41 -2 -13.9278 -1.32289 12.5614 -1.13687e-13 -7.5 12.5 0.00197838 0.212033 8.20484e-05 0 0 4 -5.27372 10.9625 31.3064 
-232.983 90.3226 1195.15 -16.5911 -14.2084 129.077 0 8 1.13687e-13 1.64892 27.0003 11.3693 1.13687e-13 8 1.13687e-13 -2.58712 11.0046 2.07729 1.13687e-13 8 0 -1.24071 5.52765 0.974726 1.13687e-13 8 -1.13687e-13 -1.2345 5.50012 0.968352 -1.7053e-13 17 1.13687e-13 -1.66217 -4.01318 3.05009 0 10.8 -1.13687e-13 -3.56897 -9.51232 6.98306 5 17 1.13687e-13 -18.5554 -6.55849 10.6805 6.45 -2.27374e-13 0 -2.17471 -1.28896 2.45879 6.45 -1.13687e-13 -1.13687e-13 40.6844 -0.0939499 2.33507 2.27374e-13 -32.4 -2 34.6216 -24.1525 -2.15199 1.13687e-13 -25.65 2 21.3826 -67.082 30.185 -0.5 -1.5 2.65 -0.996056 42.0481 -84.0029 1.13687e-13 -3.8 3.7 -0.08671 44.3675 -0.116927 -1.13687e-13 -3 2.7 0.0160919 11.1653 0.0344933 -1.13687e-13 -1.9 1.6 1.84775e-06 -3.35263e-06 -2.94469e-06 0 -8.3 1.9 -51.328 -15.666 -6.61001 -2.27374e-13 -4.5 0 -0.0832555 -0.0549904 0.00192568 0 -3.4 -1.13687e-13 1.30753e-05 -0.0111891 0.0219626 -0.25 -2.2 0.4 1.84775e-06 -3.35263e-06 -2.94469e-06 -1.13687e-13 -8.3 1 -32.9486 -20.2632 -4.83297 -2.27374e-13 -4.65 0 -0.611232 0.00797843 -0.00479863 -2.27374e-13 -3.3 2.84217e-14 7.75303 0.0254451 -0.0475084 -0.5 -2.15 -0.8 1.84775e-06 -3.35263e-06 -2.94469e-06 0 -7.75 -0.2 -34.7477 2.64516 1.99986 0 -3.8 -5.68434e-14 -1.1026 0.0403276 0.0393305 0 -3.4 0 -90.0041 0.0163484 -1.72884 -0.75 -1.75 -1.85 1.84775e-06 -3.35263e-06 -2.94469e-06 0 -7.15 -1 -32.7003 6.26275 3.26985 2.27374e-13 -3 1.13687e-13 -0.116835 -0.0998565 0.101099 2.27374e-13 -2.35 -1.13687e-13 -5.01861e-05 -0.111868 0.0760919 -5 17 0 -3.10539 -1.8807 1.62275 -6.45 -1.13687e-13 -1.13687e-13 -1.37627 -0.142409 -2.55104 -6.45 0 0 -90.8286 -33.8307 -5.42323 -1.13687e-13 -32.4 -2 22.945 -76.2375 6.53135 1.13687e-13 -25.65 2 32.9634 -2.0405 20.9078 0.5 -1.5 2.65 -19.4767 50.306 -134.591 2.27374e-13 -3.8 3.7 0.0887855 -0.362143 0.00916882 2.27374e-13 -3 2.7 -0.00748859 34.5005 0.014373 0 -1.9 1.6 -2.49538e-06 -1.22826e-06 1.99572e-06 0 -8.3 1.9 1.1845 -8.96335 0.0569832 2.27374e-13 -4.5 -2.27374e-13 -0.00336033 -0.0247976 0.00409549 0 -3.4 -2.27374e-13 -0.0215253 -0.0137179 0.0039426 0.25 -2.2 0.4 -2.49538e-06 -1.22826e-06 1.99572e-06 2.27374e-13 -8.3 1 0.905012 -7.39851 0.0287557 0 -4.65 -8.52651e-14 0.8688 3.31258 0.348773 0 -3.3 5.68434e-14 10.9639 0.0206165 0.0180152 0.5 -2.15 -0.8 -2.49538e-06 -1.22826e-06 1.99572e-06 0 -7.75 -0.2 0.379312 -4.4529 -0.00510429 0 -3.8 -2.84217e-14 2.90753 7.73509 1.29175 -2.27374e-13 -3.4 -2.27374e-13 17.2348 0.0248197 0.00867049 0.75 -1.75 -1.85 -2.49538e-06 -1.22826e-06 1.99572e-06 0 -7.15 -1 -0.140087 -3.06359 -0.0181603 0 -3 1.13687e-13 -0.0153272 -0.14449 -0.0334359 0 -2.35 0 -0.208961 -0.00557043 -0.00141065 8 0 -1.13687e-13 -2.11689 -31.648 -46.6108 0 -45 -1 14.1344 9.18716 -2.91462 -2.27374e-13 -41 -2 -19.4129 -1.43832 22.1859 0 -7.5 12.5 6.60294e-08 -6.76454e-08 -6.95587e-12 -2.27374e-13 8.88178e-16 4 12.2927 3.03243 92.4908 -8 -5.68434e-14 0 -13.7683 -15.8686 1.90266 1.13687e-13 -45 -1 26.9582 -6.79379 -5.13768 0 -41 -2 -14.0037 -1.35748 12.4822 -1.13687e-13 -7.5 12.5 0.00197838 0.211648 8.20484e-05 0 0 4 -5.27281 10.9234 31.3017 
